<?xml version="1.0" encoding="utf-8"?>
<!-- Generator: Adobe Illustrator 16.0.0, SVG Export Plug-In . SVG Version: 6.00 Build 0)  -->
<!DOCTYPE svg PUBLIC "-//W3C//DTD SVG 1.1//EN" "http://www.w3.org/Graphics/SVG/1.1/DTD/svg11.dtd">
<svg version="1.1" id="Layer_1" xmlns="http://www.w3.org/2000/svg" xmlns:xlink="http://www.w3.org/1999/xlink" x="0px" y="0px"
	 width="48px" height="60px" viewBox="488 310 48 60" enable-background="new 488 310 48 60" xml:space="preserve">
<g>
	<path fill="#1D1D1F" d="M524.995,338.885c0.009-2.956-1.827-6.479-4.265-8.449l0,0l-0.152-0.087
		c-0.272-0.207-0.55-0.394-0.833-0.559l0,0l-9.73-5.617c-0.283-0.164-0.562-0.297-0.833-0.405l-0.152-0.057
		c-1.069-0.384-2.025-0.332-2.762,0.097l-5.345,3.106c0,0,0.001-0.001,0.001-0.001c-0.946,0.548-1.533,1.716-1.538,3.379
		l-0.032,11.256l3.94,2.275l0.343-0.199l-0.009,3.256l-0.039,13.445l3.941,2.276l3.833-2.229l-0.013,4.433l3.939,2.276l5.347-3.105
		l0.032-11.338l4.296-2.496L524.995,338.885z"/>
	<polygon fill="#1D1D1F" points="507.567,349.155 512.912,346.048 512.875,359.495 507.529,362.602 	"/>
	<polygon fill="#1D1D1F" points="515.328,353.636 520.673,350.53 520.636,363.977 515.289,367.082 	"/>
	<polygon fill="#1D1D1F" points="503.328,331.562 508.673,328.456 508.639,340.717 503.293,343.823 	"/>
</g>
<path fill="#57565C" d="M500.921,326.914l5.346-3.106c0.737-0.428,1.693-0.48,2.762-0.096l-5.345,3.106
	C502.614,326.433,501.659,326.486,500.921,326.914z"/>
<g>
	<polygon fill="#1D1D1F" points="515.371,338.515 520.716,335.409 520.673,350.53 515.328,353.636 	"/>
	<polygon fill="#1D1D1F" points="519.65,341.992 524.995,338.885 524.964,350.143 519.617,353.248 	"/>
</g>
<path fill="#3E3D43" d="M510.015,324.173c-0.283-0.164-0.562-0.297-0.833-0.405l-0.152-0.056l-5.345,3.106l0.151,0.056
	c0.272,0.108,0.551,0.241,0.834,0.405l9.73,5.617l5.345-3.105L510.015,324.173z"/>
<path fill="#57565C" d="M520.578,330.349c-0.272-0.207-0.55-0.394-0.833-0.559l-5.345,3.106c0.283,0.165,0.562,0.352,0.833,0.559
	l0.151,0.088l5.346-3.106L520.578,330.349z"/>
<path fill="#2E2E30" d="M514.4,332.896c0.283,0.165,0.562,0.352,0.833,0.559l0.151,0.088c2.438,1.969,4.273,5.493,4.266,8.449
	l-0.033,11.256l-3.939-2.274l0.034-12.261l-0.341-0.197l-0.043,15.121l-0.039,13.446l-3.939-2.274l0.039-13.447l-3.821-2.206
	l-0.038,13.447l-3.941-2.276l0.039-13.445l0.042-15.121l-0.342-0.197l-0.034,12.261l-3.94-2.275l0.032-11.256
	c0.008-2.956,1.859-4.351,4.299-3.475l0.151,0.056c0.272,0.108,0.551,0.241,0.834,0.405L514.4,332.896z"/>
<path fill="#1D1D1F" d="M515.385,333.543l5.346-3.107c2.438,1.97,4.273,5.493,4.266,8.449l-5.346,3.107
	C519.658,339.036,517.822,335.512,515.385,333.543z"/>
<circle fill="#2E2E30" cx="512.372" cy="320.945" r="8.403"/>
<circle fill="#3E3D43" cx="509.09" cy="317.774" r="3.17"/>
</svg>
